<svg xmlns="http://www.w3.org/2000/svg" xmlns:xlink="http://www.w3.org/1999/xlink" width="118" height="126" version="1.1" viewBox="0 0 118 126"><title>form</title><desc>Created with Sketch.</desc><defs><path id="path-1" d="M0,2.50961209 C0,1.1235916 1.12759257,0 2.50830042,0 L101.038869,0 C102.424165,0 103.54717,1.12667358 103.54717,2.50961209 L103.54717,109.490388 C103.54717,110.876408 102.419577,112 101.038869,112 L2.50830042,112 C1.12300435,112 0,110.873326 0,109.490388 L0,2.50961209 Z"/><filter id="filter-2" width="123.2%" height="121.4%" x="-11.6%" y="-8%" filterUnits="objectBoundingBox"><feOffset dx="0" dy="3" in="SourceAlpha" result="shadowOffsetOuter1"/><feGaussianBlur in="shadowOffsetOuter1" result="shadowBlurOuter1" stdDeviation="3.5"/><feColorMatrix in="shadowBlurOuter1" type="matrix" values="0 0 0 0 0.152941176 0 0 0 0 0.180392157 0 0 0 0 0.250980392 0 0 0 0.2 0"/></filter><linearGradient id="linearGradient-3" x1="35.192%" x2="146.327%" y1="49.534%" y2="51.613%"><stop offset="0%" stop-color="#392DD1"/><stop offset="100%" stop-color="#FF4343"/></linearGradient></defs><g id="illustrations" fill="none" fill-rule="evenodd" stroke="none" stroke-width="1"><g id="Rewards-Simple-Copy" transform="translate(-376.000000, -58.000000)"><g id="form" transform="translate(383.000000, 62.000000)"><g id="Background"><use fill="#000" fill-opacity="1" filter="url(#filter-2)" xlink:href="#path-1"/><use fill="#FFF" fill-rule="evenodd" xlink:href="#path-1"/></g><rect id="Rectangle" width="45.8" height="4" x="21.132" y="78.189" fill="#7433A6" fill-opacity=".4" fill-rule="nonzero" opacity=".461" rx="1.266"/><rect id="Rectangle" width="5.704" height="5.734" x="9.594" y="19.633" fill-rule="nonzero" stroke="#F2EEF9" stroke-width="1.266" rx="1.266"/><rect id="Rectangle" width="50.778" height="4" x="21.132" y="21.132" fill="#7433A6" fill-opacity=".4" fill-rule="nonzero" opacity=".335" rx="1.266"/><rect id="Rectangle" width="69.425" height="1.734" x="21.765" y="37.614" fill="#F2EEF9" fill-rule="nonzero" stroke="#F2EEF9" stroke-width="1.266" rx=".867"/><rect id="Rectangle" width="5.704" height="5.734" x="9.594" y="35.633" fill-rule="nonzero" stroke="#F2EEF9" stroke-width="1.266" rx="1.266"/><polyline id="Path-2" fill-rule="nonzero" stroke="#6431B1" stroke-linecap="round" stroke-linejoin="round" stroke-width="1.266" points="10.952 37.774 12.692 39 15.93 34"/><rect id="Rectangle" width="5.704" height="5.734" x="9.594" y="63.633" fill-rule="nonzero" stroke="#F2EEF9" stroke-width="1.266" rx="1.266"/><rect id="Rectangle" width="69.425" height="1.734" x="21.765" y="66.142" fill="#F2EEF9" fill-rule="nonzero" stroke="#F2EEF9" stroke-width="1.266" rx=".867"/><rect id="Rectangle" width="5.704" height="5.734" x="9.594" y="92.633" fill-rule="nonzero" stroke="#F2EEF9" stroke-width="1.266" rx="1.266"/><rect id="Rectangle" width="69.425" height="2.961" x="21.765" y="93.614" fill="#F2EEF9" fill-rule="nonzero" stroke="#F2EEF9" stroke-width="1.266" rx="1.266"/><rect id="Rectangle" width="5.704" height="5.734" x="9.594" y="48.633" fill-rule="nonzero" stroke="#F2EEF9" stroke-width="1.266" rx="1.266"/><polyline id="Path-2" fill-rule="nonzero" stroke="#6431B1" stroke-linecap="round" stroke-linejoin="round" stroke-width="1.266" points="10.952 50.774 12.692 52 15.93 47"/><rect id="Rectangle" width="45.8" height="4" x="21.132" y="49.66" fill="#7433A6" fill-opacity=".4" fill-rule="nonzero" opacity=".461" rx="1.266"/><rect id="Rectangle" width="5.704" height="5.734" x="9.594" y="77.633" fill-rule="nonzero" stroke="#F2EEF9" stroke-width="1.266" rx="1.266"/><polyline id="Path-2" fill-rule="nonzero" stroke="#6431B1" stroke-linecap="round" stroke-linejoin="round" stroke-width="1.266" points="10.952 79.774 12.692 81 15.93 76"/><polygon id="Background" fill="url(#linearGradient-3)" points="0 0 103.547 0 103.547 10 0 10"/><ellipse id="Oval" cx="6.472" cy="5.5" fill="#FFF" rx="1.493" ry="1.5"/><ellipse id="Oval-Copy" cx="11.45" cy="5.5" fill="#FFF" rx="1.493" ry="1.5"/><ellipse id="Oval-Copy-2" cx="16.428" cy="5.5" fill="#FFF" rx="1.493" ry="1.5"/></g></g></g></svg>